<?xml version="1.0" encoding="UTF-8"?>
<!DOCTYPE svg PUBLIC "-//W3C//DTD SVG 1.1//EN" "http://www.w3.org/Graphics/SVG/1.1/DTD/svg11.dtd">
<svg xmlns="http://www.w3.org/2000/svg" version="1.1" width="906px" height="152px" style="shape-rendering:geometricPrecision; text-rendering:geometricPrecision; image-rendering:optimizeQuality; fill-rule:evenodd; clip-rule:evenodd" xmlns:xlink="http://www.w3.org/1999/xlink">
<g><path style="opacity:1" fill="#fbca93" d="M 143.5,0.5 C 148.137,0.353939 148.47,1.02061 144.5,2.5C 140.363,2.03421 136.029,2.03421 131.5,2.5C 135.236,1.01086 139.236,0.344195 143.5,0.5 Z"/></g>
<g><path style="opacity:1" fill="#f6912c" d="M 144.5,2.5 C 133.743,6.37613 124.076,12.0428 115.5,19.5C 115.539,18.2438 115.039,17.2438 114,16.5C 96.9005,16.5951 79.4005,16.5951 61.5,16.5C 61.5,16.1667 61.5,15.8333 61.5,15.5C 76.5037,15.6666 91.5037,15.4999 106.5,15C 114.615,10.2757 122.949,6.109 131.5,2.5C 136.029,2.03421 140.363,2.03421 144.5,2.5 Z"/></g>
<g><path style="opacity:0.129" fill="#fee6d0" d="M 143.5,0.5 C 143.5,0.166667 143.5,-0.166667 143.5,-0.5C 146.5,-0.5 149.5,-0.5 152.5,-0.5C 152.586,0.495904 152.252,1.32924 151.5,2C 132.441,7.33984 117.108,17.8398 105.5,33.5C 90.6572,33.8293 75.9905,33.496 61.5,32.5C 76.3428,32.8293 91.0095,32.496 105.5,31.5C 109.18,27.817 112.514,23.817 115.5,19.5C 124.076,12.0428 133.743,6.37613 144.5,2.5C 148.47,1.02061 148.137,0.353939 143.5,0.5 Z"/></g>
<g><path style="opacity:1" fill="#b5bef6" d="M 157.5,10.5 C 161.319,9.83443 165.319,9.5011 169.5,9.5C 175.417,9.3048 181.084,9.97147 186.5,11.5C 176.857,10.675 167.191,10.3417 157.5,10.5 Z"/></g>
<g><path style="opacity:1" fill="#2a74da" d="M 157.5,10.5 C 167.191,10.3417 176.857,10.675 186.5,11.5C 189.797,13.6013 193.463,14.9347 197.5,15.5C 199.819,15.9925 201.819,16.9925 203.5,18.5C 203.973,19.9063 204.973,20.573 206.5,20.5C 206.973,21.9063 207.973,22.573 209.5,22.5C 210.539,24.5311 212.205,25.8645 214.5,26.5C 216.167,27.5 217.5,28.8333 218.5,30.5C 219.08,32.7488 220.413,34.4154 222.5,35.5C 222.738,37.4044 223.738,38.7377 225.5,39.5C 225.427,41.0269 226.094,42.0269 227.5,42.5C 229.008,44.1815 230.008,46.1815 230.5,48.5C 231.256,52.767 232.589,56.767 234.5,60.5C 237.344,72.4839 237.011,84.4839 233.5,96.5C 232.069,97.7804 231.402,99.4471 231.5,101.5C 231.598,103.553 230.931,105.22 229.5,106.5C 228.094,106.973 227.427,107.973 227.5,109.5C 227.672,110.492 227.338,111.158 226.5,111.5C 225.094,111.973 224.427,112.973 224.5,114.5C 223.094,114.973 222.427,115.973 222.5,117.5C 222.167,118.5 221.5,119.167 220.5,119.5C 217.833,121.5 215.5,123.833 213.5,126.5C 213.167,127.5 212.5,128.167 211.5,128.5C 207.561,130.446 203.894,132.779 200.5,135.5C 192.719,138.37 184.719,140.536 176.5,142C 169.825,142.389 163.159,142.222 156.5,141.5C 148.349,138.765 140.349,135.431 132.5,131.5C 131.738,129.738 130.404,128.738 128.5,128.5C 125.167,124.5 121.5,120.833 117.5,117.5C 107.598,102.778 102.931,86.445 103.5,68.5C 106.676,51.8174 114.343,37.484 126.5,25.5C 128.749,24.9202 130.415,23.5869 131.5,21.5C 133.027,21.573 134.027,20.9063 134.5,19.5C 140.136,17.6779 145.469,15.3446 150.5,12.5C 153.152,12.5905 155.485,11.9238 157.5,10.5 Z M 171.5,49.5 C 170.792,51.3779 169.626,53.0445 168,54.5C 167.329,53.7476 166.496,53.4142 165.5,53.5C 163.674,48.5156 161.341,43.8489 158.5,39.5C 159.589,37.8829 161.256,37.0496 163.5,37C 167.152,36.5014 170.818,36.3347 174.5,36.5C 173.344,40.7925 172.344,45.1259 171.5,49.5 Z M 187.5,40.5 C 191.22,42.0499 194.553,44.2166 197.5,47C 199.607,48.2635 200.607,50.0968 200.5,52.5C 198.847,52.6596 197.514,53.3263 196.5,54.5C 194.973,54.427 193.973,55.0937 193.5,56.5C 191.847,56.6596 190.514,57.3263 189.5,58.5C 183.707,60.9265 181.707,59.2599 183.5,53.5C 185.279,49.4052 186.612,45.0719 187.5,40.5 Z M 152.5,62.5 C 149.482,62.2962 146.482,61.9629 143.5,61.5C 141.786,60.2616 139.786,59.595 137.5,59.5C 136.791,58.596 135.791,58.2627 134.5,58.5C 135.011,55.9785 136.011,53.6451 137.5,51.5C 139.814,49.5227 142.147,47.5227 144.5,45.5C 148.526,50.5502 151.192,56.2169 152.5,62.5 Z M 205.5,81.5 C 201.344,79.6652 197.011,77.9986 192.5,76.5C 191.374,75.1916 191.374,73.8583 192.5,72.5C 197.599,70.4516 202.599,68.1183 207.5,65.5C 208.192,66.0253 208.692,66.6919 209,67.5C 209.499,72.1548 209.666,76.8215 209.5,81.5C 208.167,81.5 206.833,81.5 205.5,81.5 Z M 173.5,84.5 C 164.5,85.5 160.5,81.5 161.5,72.5C 162.906,72.0269 163.573,71.0269 163.5,69.5C 172.772,65.5474 177.606,68.5474 178,78.5C 176.668,80.66 175.168,82.66 173.5,84.5 Z M 129.5,70.5 C 134.696,72.5652 140.03,74.2319 145.5,75.5C 145.953,76.4584 146.619,77.2917 147.5,78C 146.619,78.7083 145.953,79.5416 145.5,80.5C 143.181,80.9925 141.181,81.9925 139.5,83.5C 136.378,84.5612 133.378,85.8946 130.5,87.5C 129.708,81.8698 129.375,76.2031 129.5,70.5 Z M 192.5,106.5 C 190.438,101.375 188.104,96.3752 185.5,91.5C 186.482,90.8592 187.482,90.1925 188.5,89.5C 193.92,91.3063 199.254,93.3063 204.5,95.5C 202.246,100.587 198.746,104.587 194,107.5C 193.617,106.944 193.117,106.611 192.5,106.5 Z M 153.5,104.5 C 152.518,106.406 151.518,108.406 150.5,110.5C 148.466,109.441 146.466,108.441 144.5,107.5C 142.833,105.167 140.833,103.167 138.5,101.5C 143.489,97.5066 149.156,94.8399 155.5,93.5C 154.992,97.1974 154.326,100.864 153.5,104.5 Z M 169.5,98.5 C 170.5,98.5 171.5,98.5 172.5,98.5C 175.013,103.692 177.68,108.858 180.5,114C 174.956,115.404 169.29,115.904 163.5,115.5C 164.234,114.292 164.567,112.959 164.5,111.5C 165.738,109.786 166.405,107.786 166.5,105.5C 167.404,104.791 167.737,103.791 167.5,102.5C 168.674,101.486 169.34,100.153 169.5,98.5 Z"/></g>
<g><path style="opacity:1" fill="#b7c0f6" d="M 157.5,10.5 C 155.485,11.9238 153.152,12.5905 150.5,12.5C 152.515,11.0762 154.848,10.4095 157.5,10.5 Z"/></g>
<g><path style="opacity:0.957" fill="#bec5f7" d="M 186.5,11.5 C 190.537,12.0653 194.203,13.3987 197.5,15.5C 193.463,14.9347 189.797,13.6013 186.5,11.5 Z"/></g>
<g><path style="opacity:1" fill="#fbc998" d="M 131.5,2.5 C 122.949,6.109 114.615,10.2757 106.5,15C 91.5037,15.4999 76.5037,15.6666 61.5,15.5C 61.5,15.1667 61.5,14.8333 61.5,14.5C 76.1705,14.6666 90.8371,14.4999 105.5,14C 113.331,8.25083 121.997,4.41749 131.5,2.5 Z"/></g>
<g><path style="opacity:0.129" fill="#feeacb" d="M 34.5,15.5 C 30.5,15.5 26.5,15.5 22.5,15.5C 22.5,21.1667 22.5,26.8333 22.5,32.5C 26.5,32.5 30.5,32.5 34.5,32.5C 32.777,33.8001 30.6103,34.4668 28,34.5C 25.5759,34.4704 23.2426,34.1371 21,33.5C 20.5005,27.1754 20.3338,20.8421 20.5,14.5C 25.3633,14.1805 30.03,14.5139 34.5,15.5 Z"/></g>
<g><path style="opacity:1" fill="#f58523" d="M 61.5,16.5 C 79.4005,16.5951 96.9005,16.5951 114,16.5C 115.039,17.2438 115.539,18.2438 115.5,19.5C 112.514,23.817 109.18,27.817 105.5,31.5C 90.8333,31.5 76.1667,31.5 61.5,31.5C 61.5,26.5 61.5,21.5 61.5,16.5 Z"/></g>
<g><path style="opacity:1" fill="#f7a525" d="M 34.5,15.5 C 34.5,21.1667 34.5,26.8333 34.5,32.5C 30.5,32.5 26.5,32.5 22.5,32.5C 22.5,26.8333 22.5,21.1667 22.5,15.5C 26.5,15.5 30.5,15.5 34.5,15.5 Z"/></g>
<g><path style="opacity:0.318" fill="#feead2" d="M 39.5,14.5 C 45.1667,14.5 50.8333,14.5 56.5,14.5C 56.6662,20.8421 56.4995,27.1754 56,33.5C 50.6667,34.8333 45.3333,34.8333 40,33.5C 39.5005,27.1754 39.3338,20.8421 39.5,14.5 Z"/></g>
<g><path style="opacity:1" fill="#f69d29" d="M 40.5,15.5 C 45.5,15.5 50.5,15.5 55.5,15.5C 55.5,21.1667 55.5,26.8333 55.5,32.5C 50.5,32.5 45.5,32.5 40.5,32.5C 40.5,26.8333 40.5,21.1667 40.5,15.5 Z"/></g>
<g><path style="opacity:1" fill="#b3bbf6" d="M 150.5,12.5 C 145.469,15.3446 140.136,17.6779 134.5,19.5C 139.088,15.631 144.422,13.2977 150.5,12.5 Z"/></g>
<g><path style="opacity:0.212" fill="#dee3fb" d="M 203.5,18.5 C 205.027,18.427 206.027,19.0937 206.5,20.5C 204.973,20.573 203.973,19.9063 203.5,18.5 Z"/></g>
<g><path style="opacity:0.831" fill="#cdd3f9" d="M 134.5,19.5 C 134.027,20.9063 133.027,21.573 131.5,21.5C 131.973,20.0937 132.973,19.427 134.5,19.5 Z"/></g>
<g><path style="opacity:0.235" fill="#dadefa" d="M 206.5,20.5 C 208.027,20.427 209.027,21.0937 209.5,22.5C 207.973,22.573 206.973,21.9063 206.5,20.5 Z"/></g>
<g><path style="opacity:1" fill="#c5ccf8" d="M 131.5,21.5 C 130.415,23.5869 128.749,24.9202 126.5,25.5C 127.585,23.4131 129.251,22.0798 131.5,21.5 Z"/></g>
<g><path style="opacity:0.808" fill="#c3c9f7" d="M 209.5,22.5 C 211.754,23.1237 213.421,24.457 214.5,26.5C 212.205,25.8645 210.539,24.5311 209.5,22.5 Z"/></g>
<g><path style="opacity:1" fill="#1c71d9" d="M 767.5,29.5 C 775.167,29.5 782.833,29.5 790.5,29.5C 783.136,52.4261 774.303,74.7594 764,96.5C 760.361,100.734 755.861,103.568 750.5,105C 737.506,106.977 724.506,106.977 711.5,105C 693.052,102.198 686.219,91.6978 691,73.5C 697.033,64.6862 705.533,60.1862 716.5,60C 725.833,59.3333 735.167,59.3333 744.5,60C 748.451,60.5362 751.951,62.0362 755,64.5C 759.469,52.9237 763.636,41.2571 767.5,29.5 Z M 721.5,73.5 C 728.313,73.2251 734.979,74.0585 741.5,76C 747.514,83.6872 745.514,88.6872 735.5,91C 728.129,92.3096 721.129,91.3096 714.5,88C 710.81,80.2141 713.143,75.3808 721.5,73.5 Z"/></g>
<g><path style="opacity:1" fill="#f8a866" d="M 61.5,15.5 C 61.5,15.8333 61.5,16.1667 61.5,16.5C 61.5,21.5 61.5,26.5 61.5,31.5C 76.1667,31.5 90.8333,31.5 105.5,31.5C 91.0095,32.496 76.3428,32.8293 61.5,32.5C 60.1667,26.8333 60.1667,21.1667 61.5,15.5 Z"/></g>
<g><path style="opacity:1" fill="#bdc5f7" d="M 218.5,30.5 C 220.587,31.5846 221.92,33.2512 222.5,35.5C 220.413,34.4154 219.08,32.7488 218.5,30.5 Z"/></g>
<g><path style="opacity:0.042" fill="#fef9f6" d="M 61.5,14.5 C 61.5,14.8333 61.5,15.1667 61.5,15.5C 60.1667,21.1667 60.1667,26.8333 61.5,32.5C 75.9905,33.496 90.6572,33.8293 105.5,33.5C 90.6723,34.6611 75.6723,34.8277 60.5,34C 59.8528,30.7515 59.5195,27.4181 59.5,24C 59.5152,20.4242 60.1818,17.2575 61.5,14.5 Z"/></g>
<g><path style="opacity:0.073" fill="#d5dafa" d="M 171.5,49.5 C 172.344,45.1259 173.344,40.7925 174.5,36.5C 170.818,36.3347 167.152,36.5014 163.5,37C 161.256,37.0496 159.589,37.8829 158.5,39.5C 157.209,38.4583 157.209,37.2917 158.5,36C 164.097,34.5439 169.763,34.2106 175.5,35C 176.022,35.5613 176.355,36.228 176.5,37C 175.296,41.466 173.629,45.6326 171.5,49.5 Z"/></g>
<g><path style="opacity:0.871" fill="#c1c8f8" d="M 222.5,35.5 C 224.262,36.2623 225.262,37.5956 225.5,39.5C 223.738,38.7377 222.738,37.4044 222.5,35.5 Z"/></g>
<g><path style="opacity:1" fill="#1c71d9" d="M 306.5,38.5 C 315.87,38.3177 325.204,38.8177 334.5,40C 352.423,42.9843 359.59,53.4843 356,71.5C 354.24,92.925 342.74,104.758 321.5,107C 309.618,108.264 297.951,107.264 286.5,104C 286.167,103.667 285.833,103.333 285.5,103C 287.541,98.7108 288.874,94.2108 289.5,89.5C 298.964,92.3062 308.63,93.1395 318.5,92C 329.358,87.6119 335.025,79.4452 335.5,67.5C 335.418,61.8277 332.752,57.9944 327.5,56C 306.009,50.4918 292.176,58.3251 286,79.5C 282.803,88.0917 279.803,96.7584 277,105.5C 269.587,106.481 262.087,106.814 254.5,106.5C 259.92,86.3253 268.087,67.3253 279,49.5C 282.236,46.1291 286.069,43.6291 290.5,42C 295.905,40.5038 301.239,39.3372 306.5,38.5 Z"/></g>
<g><path style="opacity:1" fill="#fac68a" d="M 61.5,40.5 C 61.5,40.1667 61.5,39.8333 61.5,39.5C 74.8333,39.5 88.1667,39.5 101.5,39.5C 101.598,41.5529 100.931,43.2196 99.5,44.5C 99.33,43.1779 99.6634,42.0113 100.5,41C 87.5043,40.5001 74.5043,40.3334 61.5,40.5 Z"/></g>
<g><path style="opacity:0.467" fill="#dbdffb" d="M 126.5,25.5 C 114.343,37.484 106.676,51.8174 103.5,68.5C 104.716,55.0136 109.549,43.0136 118,32.5C 120.436,29.5532 123.269,27.2199 126.5,25.5 Z"/></g>
<g><path style="opacity:0.126" fill="#ffeed4" d="M 22.5,40.5 C 22.5,40.8333 22.5,41.1667 22.5,41.5C 22.5,46.8333 22.5,52.1667 22.5,57.5C 26.1667,57.5 29.8333,57.5 33.5,57.5C 33.8333,57.5 34.1667,57.5 34.5,57.5C 32.9522,58.7943 30.9522,59.4609 28.5,59.5C 26.1088,59.4407 23.7754,59.1074 21.5,58.5C 21.1667,55.5 20.8333,52.5 20.5,49.5C 20.517,46.0866 21.1836,43.0866 22.5,40.5 Z"/></g>
<g><path style="opacity:0.192" fill="#dde1fb" d="M 187.5,40.5 C 188.251,39.4265 189.251,39.2599 190.5,40C 195.202,43.1689 199.202,47.0022 202.5,51.5C 202.043,52.2975 201.376,52.6309 200.5,52.5C 200.607,50.0968 199.607,48.2635 197.5,47C 194.553,44.2166 191.22,42.0499 187.5,40.5 Z"/></g>
<g><path style="opacity:0.427" fill="#d6dbfa" d="M 225.5,39.5 C 226.906,39.9731 227.573,40.9731 227.5,42.5C 226.094,42.0269 225.427,41.0269 225.5,39.5 Z"/></g>
<g><path style="opacity:1" fill="#fbd48a" d="M 0.5,40.5 C 5.5,40.5 10.5,40.5 15.5,40.5C 15.5,46.1667 15.5,51.8333 15.5,57.5C 15.1667,57.5 14.8333,57.5 14.5,57.5C 14.5,52.1667 14.5,46.8333 14.5,41.5C 10.1667,41.5 5.83333,41.5 1.5,41.5C 1.5,46.8333 1.5,52.1667 1.5,57.5C 0.511136,52.0247 0.177803,46.358 0.5,40.5 Z"/></g>
<g><path style="opacity:1" fill="#f7ac20" d="M 14.5,57.5 C 10.1667,57.5 5.83333,57.5 1.5,57.5C 1.5,52.1667 1.5,46.8333 1.5,41.5C 5.83333,41.5 10.1667,41.5 14.5,41.5C 14.5,46.8333 14.5,52.1667 14.5,57.5 Z"/></g>
<g><path style="opacity:1" fill="#f7a220" d="M 22.5,41.5 C 26.1667,41.5 29.8333,41.5 33.5,41.5C 33.5,46.8333 33.5,52.1667 33.5,57.5C 29.8333,57.5 26.1667,57.5 22.5,57.5C 22.5,52.1667 22.5,46.8333 22.5,41.5 Z"/></g>
<g><path style="opacity:1" fill="#f9b858" d="M 22.5,41.5 C 22.5,41.1667 22.5,40.8333 22.5,40.5C 26.5,40.5 30.5,40.5 34.5,40.5C 34.5,46.1667 34.5,51.8333 34.5,57.5C 34.1667,57.5 33.8333,57.5 33.5,57.5C 33.5,52.1667 33.5,46.8333 33.5,41.5C 29.8333,41.5 26.1667,41.5 22.5,41.5 Z"/></g>
<g><path style="opacity:1" fill="#f58e22" d="M 61.5,40.5 C 74.5043,40.3334 87.5043,40.5001 100.5,41C 99.6634,42.0113 99.33,43.1779 99.5,44.5C 97.9862,46.364 96.6528,48.364 95.5,50.5C 84.5493,48.5223 73.216,47.8556 61.5,48.5C 61.5,45.8333 61.5,43.1667 61.5,40.5 Z"/></g>
<g><path style="opacity:0.157" fill="#dadefb" d="M 152.5,62.5 C 151.192,56.2169 148.526,50.5502 144.5,45.5C 142.147,47.5227 139.814,49.5227 137.5,51.5C 138.882,48.6057 140.882,46.1057 143.5,44C 144.635,43.2506 145.635,43.4173 146.5,44.5C 148.667,48.8333 150.833,53.1667 153,57.5C 153.78,59.3869 153.613,61.0536 152.5,62.5 Z"/></g>
<g><path style="opacity:1" fill="#f58623" d="M 61.5,48.5 C 73.216,47.8556 84.5493,48.5223 95.5,50.5C 95.5,52.1667 95.5,53.8333 95.5,55.5C 94.8333,55.5 94.5,55.8333 94.5,56.5C 83.5,56.5 72.5,56.5 61.5,56.5C 61.5,53.8333 61.5,51.1667 61.5,48.5 Z"/></g>
<g><path style="opacity:0.831" fill="#fed7b5" d="M 99.5,44.5 C 98.3953,48.3517 97.062,52.0184 95.5,55.5C 95.5,53.8333 95.5,52.1667 95.5,50.5C 96.6528,48.364 97.9862,46.364 99.5,44.5 Z"/></g>
<g><path style="opacity:1" fill="#b0b7f6" d="M 230.5,48.5 C 232.806,52.0845 234.139,56.0845 234.5,60.5C 232.589,56.767 231.256,52.767 230.5,48.5 Z"/></g>
<g><path style="opacity:1" fill="#babff6" d="M 200.5,52.5 C 199.817,54.1765 198.483,54.8432 196.5,54.5C 197.514,53.3263 198.847,52.6596 200.5,52.5 Z"/></g>
<g><path style="opacity:0.867" fill="#c0c8f7" d="M 171.5,49.5 C 171.986,53.509 170.32,55.3423 166.5,55C 165.944,54.6174 165.611,54.1174 165.5,53.5C 166.496,53.4142 167.329,53.7476 168,54.5C 169.626,53.0445 170.792,51.3779 171.5,49.5 Z"/></g>
<g><path style="opacity:0.702" fill="#cfd4f9" d="M 196.5,54.5 C 196.027,55.9063 195.027,56.573 193.5,56.5C 193.973,55.0937 194.973,54.427 196.5,54.5 Z"/></g>
<g><path style="opacity:1" fill="#f8ac6b" d="M 61.5,40.5 C 61.5,43.1667 61.5,45.8333 61.5,48.5C 61.5,51.1667 61.5,53.8333 61.5,56.5C 72.5,56.5 83.5,56.5 94.5,56.5C 83.3456,57.4948 72.0123,57.8281 60.5,57.5C 60.1778,51.642 60.5111,45.9753 61.5,40.5 Z"/></g>
<g><path style="opacity:0.982" fill="#fef0d7" d="M -0.5,40.5 C -0.166667,40.5 0.166667,40.5 0.5,40.5C 0.177803,46.358 0.511136,52.0247 1.5,57.5C 5.83333,57.5 10.1667,57.5 14.5,57.5C 14.8333,57.5 15.1667,57.5 15.5,57.5C 15.3893,58.1174 15.056,58.6174 14.5,59C 9.44767,59.7258 4.44767,59.5591 -0.5,58.5C -0.5,52.5 -0.5,46.5 -0.5,40.5 Z"/></g>
<g><path style="opacity:1" fill="#fee6c9" d="M 39.5,40.5 C 45.1667,40.5 50.8333,40.5 56.5,40.5C 56.6662,46.5092 56.4995,52.5092 56,58.5C 50.6667,59.8333 45.3333,59.8333 40,58.5C 39.5005,52.5092 39.3338,46.5092 39.5,40.5 Z"/></g>
<g><path style="opacity:1" fill="#f69c26" d="M 40.5,41.5 C 45.5,41.5 50.5,41.5 55.5,41.5C 55.5,46.8333 55.5,52.1667 55.5,57.5C 50.5,57.5 45.5,57.5 40.5,57.5C 40.5,52.1667 40.5,46.8333 40.5,41.5 Z"/></g>
<g><path style="opacity:0.489" fill="#fee9d7" d="M 61.5,39.5 C 61.5,39.8333 61.5,40.1667 61.5,40.5C 60.5111,45.9753 60.1778,51.642 60.5,57.5C 72.0123,57.8281 83.3456,57.4948 94.5,56.5C 94.5,55.8333 94.8333,55.5 95.5,55.5C 95.5,56.5 95.5,57.5 95.5,58.5C 83.5,58.5 71.5,58.5 59.5,58.5C 58.8771,51.7453 59.5437,45.412 61.5,39.5 Z"/></g>
<g><path style="opacity:1" fill="#1c71d9" d="M 461.5,58.5 C 483.167,58.5 504.833,58.5 526.5,58.5C 525.888,62.45 524.888,66.2834 523.5,70C 510.5,77.6667 497.5,85.3333 484.5,93C 495.848,93.1675 507.181,93.6675 518.5,94.5C 517.027,98.2508 515.36,101.917 513.5,105.5C 489.5,106.833 465.5,106.833 441.5,105.5C 442.373,101.801 443.373,98.1348 444.5,94.5C 458.297,86.5323 471.964,78.3656 485.5,70C 476.173,69.5002 466.839,69.3335 457.5,69.5C 458.438,65.6872 459.771,62.0205 461.5,58.5 Z"/></g>
<g><path style="opacity:1" fill="#1c71d9" d="M 621.5,58.5 C 628.863,58.1694 636.197,58.5027 643.5,59.5C 640.133,67.4349 637.466,75.6016 635.5,84C 636.447,89.2786 639.613,92.112 645,92.5C 650.529,92.0726 654.529,89.4059 657,84.5C 659.944,75.835 662.777,67.1683 665.5,58.5C 673.167,58.5 680.833,58.5 688.5,58.5C 686.166,72.1594 681.333,84.826 674,96.5C 671.408,99.7621 668.241,102.262 664.5,104C 650.5,108.667 636.5,108.667 622.5,104C 616.584,101.005 613.584,96.1719 613.5,89.5C 614.453,78.6869 617.12,68.3535 621.5,58.5 Z"/></g>
<g><path style="opacity:1" fill="#1c71d9" d="M 796.5,58.5 C 803.863,58.1694 811.197,58.5027 818.5,59.5C 813.037,74.3878 807.871,89.3878 803,104.5C 799.26,105.794 795.26,106.461 791,106.5C 787.167,106.167 783.333,105.833 779.5,105.5C 784.978,89.7286 790.645,74.0619 796.5,58.5 Z"/></g>
<g><path style="opacity:1" fill="#1c71d9" d="M 905.5,80.5 C 905.5,82.1667 905.5,83.8333 905.5,85.5C 902.377,93.4548 896.71,98.9548 888.5,102C 874.475,106.756 860.142,107.756 845.5,105C 837.236,103.119 830.069,99.2858 824,93.5C 817.454,81.9594 819.954,72.7927 831.5,66C 852.998,55.7155 874.331,56.0489 895.5,67C 900.442,70.416 903.776,74.916 905.5,80.5 Z M 860.5,72.5 C 866.19,72.6404 871.524,73.9738 876.5,76.5C 879.119,82.7812 877.119,87.2812 870.5,90C 862.594,92.7558 855.428,91.5891 849,86.5C 847.921,77.749 851.754,73.0823 860.5,72.5 Z"/></g>
<g><path style="opacity:0.106" fill="#c2c8f7" d="M 183.5,53.5 C 181.707,59.2599 183.707,60.9265 189.5,58.5C 189.389,59.1174 189.056,59.6174 188.5,60C 181.537,61.5203 179.87,59.3536 183.5,53.5 Z"/></g>
<g><path style="opacity:1" fill="#1c71d9" d="M 384.5,59.5 C 395.211,59.1884 405.878,59.6884 416.5,61C 423.311,61.9306 429.144,64.764 434,69.5C 435.779,72.613 436.945,75.9463 437.5,79.5C 436.242,88.2904 434.409,96.9571 432,105.5C 427.822,107.399 423.322,108.065 418.5,107.5C 418.5,106.5 418.5,105.5 418.5,104.5C 404.239,106.463 389.905,106.963 375.5,106C 362.628,104.504 357.795,97.6706 361,85.5C 363.08,83.8767 365.246,82.3767 367.5,81C 384.745,74.5302 401.745,75.0302 418.5,82.5C 418.49,79.5842 416.823,77.4175 413.5,76C 396.75,70.4352 380.083,70.9352 363.5,77.5C 364.111,72.8921 365.111,68.3921 366.5,64C 372.509,62.0374 378.509,60.5374 384.5,59.5 Z M 391.5,88.5 C 398.386,88.3596 405.053,89.3596 411.5,91.5C 401.42,95.4431 391.42,95.4431 381.5,91.5C 381.833,91.1667 382.167,90.8333 382.5,90.5C 385.64,89.9106 388.64,89.2439 391.5,88.5 Z"/></g>
<g><path style="opacity:1" fill="#1c71d9" d="M 554.5,59.5 C 565.211,59.1884 575.878,59.6884 586.5,61C 593.311,61.9306 599.144,64.764 604,69.5C 606.359,72.5768 607.526,76.0768 607.5,80C 606.38,88.981 604.546,97.8143 602,106.5C 597.599,107.467 593.099,107.8 588.5,107.5C 588.5,106.5 588.5,105.5 588.5,104.5C 574.245,106.488 559.912,106.988 545.5,106C 532.477,104.522 527.81,97.689 531.5,85.5C 534.166,83.1647 537.166,81.3314 540.5,80C 556.872,74.6181 572.872,75.4514 588.5,82.5C 589.521,81.9984 589.688,81.3317 589,80.5C 587.062,77.8941 584.562,76.0608 581.5,75C 565.371,70.658 549.371,71.4913 533.5,77.5C 534.209,72.6023 535.542,67.9356 537.5,63.5C 543.233,61.8911 548.899,60.5578 554.5,59.5 Z M 561.5,88.5 C 568.407,88.2007 575.074,89.2007 581.5,91.5C 571.468,95.4327 561.468,95.4327 551.5,91.5C 551.833,91.1667 552.167,90.8333 552.5,90.5C 555.64,89.9106 558.64,89.2439 561.5,88.5 Z"/></g>
<g><path style="opacity:1" fill="#9ea6f3" d="M 137.5,59.5 C 139.786,59.595 141.786,60.2616 143.5,61.5C 140.99,61.9465 138.99,61.2798 137.5,59.5 Z"/></g>
<g><path style="opacity:0.02" fill="#d5dafa" d="M 143.5,61.5 C 146.482,61.9629 149.482,62.2962 152.5,62.5C 149.373,63.8149 146.373,63.4815 143.5,61.5 Z"/></g>
<g><path style="opacity:1" fill="#f9b571" d="M 92.5,71.5 C 92.5,74.5 92.5,77.5 92.5,80.5C 92.5,81.8333 92.5,83.1667 92.5,84.5C 81.9865,84.8276 71.6532,84.4942 61.5,83.5C 60.5111,78.0247 60.1778,72.358 60.5,66.5C 71.1667,66.5 81.8333,66.5 92.5,66.5C 92.5,68.1667 92.5,69.8333 92.5,71.5 Z"/></g>
<g><path style="opacity:0.318" fill="#feecd6" d="M 39.5,65.5 C 45.1667,65.5 50.8333,65.5 56.5,65.5C 56.6663,72.175 56.4996,78.8417 56,85.5C 50.6667,86.8333 45.3333,86.8333 40,85.5C 39.5004,78.8417 39.3337,72.175 39.5,65.5 Z"/></g>
<g><path style="opacity:0.412" fill="#d3d8fa" d="M 173.5,84.5 C 175.168,82.66 176.668,80.66 178,78.5C 177.606,68.5474 172.772,65.5474 163.5,69.5C 168.502,65.3259 173.335,65.6592 178,70.5C 181.002,76.7899 179.502,81.4566 173.5,84.5 Z"/></g>
<g><path style="opacity:0.388" fill="#d3d8fa" d="M 205.5,81.5 C 206.833,81.5 208.167,81.5 209.5,81.5C 209.666,76.8215 209.499,72.1548 209,67.5C 208.692,66.6919 208.192,66.0253 207.5,65.5C 202.599,68.1183 197.599,70.4516 192.5,72.5C 197.447,69.021 202.78,66.021 208.5,63.5C 209.934,65.2199 210.767,67.2199 211,69.5C 211.499,73.8206 211.666,78.1539 211.5,82.5C 209.265,82.7947 207.265,82.4614 205.5,81.5 Z"/></g>
<g><path style="opacity:1" fill="#f69d29" d="M 40.5,66.5 C 45.5,66.5 50.5,66.5 55.5,66.5C 55.5,72.5 55.5,78.5 55.5,84.5C 50.5,84.5 45.5,84.5 40.5,84.5C 40.5,78.5 40.5,72.5 40.5,66.5 Z"/></g>
<g><path style="opacity:1" fill="#f58d21" d="M 91.5,78.5 C 90.596,77.791 90.2627,76.791 90.5,75.5C 80.8333,75.5 71.1667,75.5 61.5,75.5C 61.5,72.8333 61.5,70.1667 61.5,67.5C 71.5,67.5 81.5,67.5 91.5,67.5C 91.5,71.1667 91.5,74.8333 91.5,78.5 Z"/></g>
<g><path style="opacity:0.169" fill="#d1d5f9" d="M 129.5,70.5 C 129.735,69.9033 130.235,69.5699 131,69.5C 136.251,70.8512 141.085,72.8512 145.5,75.5C 140.03,74.2319 134.696,72.5652 129.5,70.5 Z"/></g>
<g><path style="opacity:0.02" fill="#e2e5fb" d="M 163.5,69.5 C 163.573,71.0269 162.906,72.0269 161.5,72.5C 161.427,70.9731 162.094,69.9731 163.5,69.5 Z"/></g>
<g><path style="opacity:1" fill="#f58522" d="M 61.5,75.5 C 71.1667,75.5 80.8333,75.5 90.5,75.5C 90.2627,76.791 90.596,77.791 91.5,78.5C 91.5,80.1667 91.5,81.8333 91.5,83.5C 81.5,83.5 71.5,83.5 61.5,83.5C 61.5,80.8333 61.5,78.1667 61.5,75.5 Z"/></g>
<g><path style="opacity:0.376" fill="#d3d9fa" d="M 145.5,75.5 C 147.252,75.4176 148.252,76.2509 148.5,78C 148.252,79.7491 147.252,80.5824 145.5,80.5C 145.953,79.5416 146.619,78.7083 147.5,78C 146.619,77.2917 145.953,76.4584 145.5,75.5 Z"/></g>
<g><path style="opacity:0.192" fill="#fdf2e7" d="M 92.5,71.5 C 92.5,69.8333 92.5,68.1667 92.5,66.5C 81.8333,66.5 71.1667,66.5 60.5,66.5C 60.1778,72.358 60.5111,78.0247 61.5,83.5C 71.6532,84.4942 81.9865,84.8276 92.5,84.5C 92.5,83.1667 92.5,81.8333 92.5,80.5C 93.4511,81.9187 93.7845,83.5853 93.5,85.5C 82.495,85.6665 71.495,85.4998 60.5,85C 59.5223,78.5898 59.189,72.0898 59.5,65.5C 70.8333,65.5 82.1667,65.5 93.5,65.5C 93.7947,67.7354 93.4614,69.7354 92.5,71.5 Z"/></g>
<g><path style="opacity:0.227" fill="#dde1fb" d="M 139.5,83.5 C 137.235,85.642 134.568,87.3087 131.5,88.5C 130.893,88.3764 130.56,88.0431 130.5,87.5C 133.378,85.8946 136.378,84.5612 139.5,83.5 Z"/></g>
<g><path style="opacity:0.549" fill="#d1d6f9" d="M 192.5,106.5 C 193.117,106.611 193.617,106.944 194,107.5C 198.746,104.587 202.246,100.587 204.5,95.5C 199.254,93.3063 193.92,91.3063 188.5,89.5C 187.482,90.1925 186.482,90.8592 185.5,91.5C 185.484,89.5159 186.484,88.5159 188.5,88.5C 194.77,90.0624 200.77,92.2291 206.5,95C 203.771,101.063 199.604,105.897 194,109.5C 192.961,108.756 192.461,107.756 192.5,106.5 Z"/></g>
<g><path style="opacity:0.404" fill="#dce0fb" d="M 103.5,68.5 C 102.931,86.445 107.598,102.778 117.5,117.5C 105.523,103.237 100.856,86.9037 103.5,68.5 Z"/></g>
<g><path style="opacity:0.993" fill="#fde5cb" d="M 94.5,93.5 C 83.5,93.5 72.5,93.5 61.5,93.5C 61.5,93.1667 61.5,92.8333 61.5,92.5C 71.992,91.3412 82.6586,91.1745 93.5,92C 94.056,92.3826 94.3893,92.8826 94.5,93.5 Z"/></g>
<g><path style="opacity:1" fill="#f9af5e" d="M 61.5,93.5 C 72.5,93.5 83.5,93.5 94.5,93.5C 95.4345,94.5676 95.7678,95.901 95.5,97.5C 94.7326,96.828 94.0659,95.9947 93.5,95C 82.8385,94.5002 72.1719,94.3335 61.5,94.5C 61.5,97.1667 61.5,99.8333 61.5,102.5C 61.5,105.167 61.5,107.833 61.5,110.5C 60.1667,104.833 60.1667,99.1667 61.5,93.5 Z"/></g>
<g><path style="opacity:0.146" fill="#fef5e3" d="M -0.5,93.5 C -0.166667,93.5 0.166667,93.5 0.5,93.5C 0.177803,99.358 0.511136,105.025 1.5,110.5C 5.83333,110.5 10.1667,110.5 14.5,110.5C 14.8333,110.5 15.1667,110.5 15.5,110.5C 10.3595,111.488 5.02621,111.821 -0.5,111.5C -0.5,105.5 -0.5,99.5 -0.5,93.5 Z"/></g>
<g><path style="opacity:1" fill="#fdd996" d="M 15.5,110.5 C 15.1667,110.5 14.8333,110.5 14.5,110.5C 14.5,105.167 14.5,99.8333 14.5,94.5C 10.1667,94.5 5.83333,94.5 1.5,94.5C 1.5,99.8333 1.5,105.167 1.5,110.5C 0.511136,105.025 0.177803,99.358 0.5,93.5C 5.30537,92.5128 10.3054,92.1795 15.5,92.5C 15.5,98.5 15.5,104.5 15.5,110.5 Z"/></g>
<g><path style="opacity:1" fill="#f7ad21" d="M 14.5,110.5 C 10.1667,110.5 5.83333,110.5 1.5,110.5C 1.5,105.167 1.5,99.8333 1.5,94.5C 5.83333,94.5 10.1667,94.5 14.5,94.5C 14.5,99.8333 14.5,105.167 14.5,110.5 Z"/></g>
<g><path style="opacity:0.129" fill="#fef4e5" d="M 21.5,93.5 C 21.1778,99.358 21.5111,105.025 22.5,110.5C 26.5,110.5 30.5,110.5 34.5,110.5C 30.03,111.486 25.3633,111.819 20.5,111.5C 20.1771,105.31 20.5104,99.31 21.5,93.5 Z"/></g>
<g><path style="opacity:1" fill="#fedba6" d="M 34.5,94.5 C 30.5,94.5 26.5,94.5 22.5,94.5C 22.5,99.8333 22.5,105.167 22.5,110.5C 21.5111,105.025 21.1778,99.358 21.5,93.5C 23.4726,92.8373 25.6392,92.5039 28,92.5C 30.6103,92.5332 32.777,93.1999 34.5,94.5 Z"/></g>
<g><path style="opacity:1" fill="#f7a525" d="M 34.5,94.5 C 34.5,99.8333 34.5,105.167 34.5,110.5C 30.5,110.5 26.5,110.5 22.5,110.5C 22.5,105.167 22.5,99.8333 22.5,94.5C 26.5,94.5 30.5,94.5 34.5,94.5 Z"/></g>
<g><path style="opacity:0.192" fill="#fef4ea" d="M 61.5,92.5 C 61.5,92.8333 61.5,93.1667 61.5,93.5C 60.1667,99.1667 60.1667,104.833 61.5,110.5C 61.5,110.833 61.5,111.167 61.5,111.5C 60.1818,108.742 59.5152,105.576 59.5,102C 59.5152,98.4242 60.1818,95.2575 61.5,92.5 Z"/></g>
<g><path style="opacity:0.188" fill="#dadefa" d="M 153.5,104.5 C 154.326,100.864 154.992,97.1974 155.5,93.5C 149.156,94.8399 143.489,97.5066 138.5,101.5C 137.226,100.811 137.226,99.9772 138.5,99C 142.5,97 146.5,95 150.5,93C 152.5,92.3333 154.5,92.3333 156.5,93C 157.022,93.5613 157.355,94.228 157.5,95C 156.382,98.3711 155.049,101.538 153.5,104.5 Z"/></g>
<g><path style="opacity:1" fill="#f58d22" d="M 95.5,97.5 C 95.5172,99.5648 95.8505,101.565 96.5,103.5C 84.9139,102.522 73.2473,102.189 61.5,102.5C 61.5,99.8333 61.5,97.1667 61.5,94.5C 72.1719,94.3335 82.8385,94.5002 93.5,95C 94.0659,95.9947 94.7326,96.828 95.5,97.5 Z"/></g>
<g><path style="opacity:0.639" fill="#cbd1f9" d="M 233.5,96.5 C 233.598,98.5529 232.931,100.22 231.5,101.5C 231.402,99.4471 232.069,97.7804 233.5,96.5 Z"/></g>
<g><path style="opacity:1" fill="#fdca9a" d="M 95.5,97.5 C 96.871,99.936 97.871,102.603 98.5,105.5C 97.5,105.167 96.8333,104.5 96.5,103.5C 95.8505,101.565 95.5172,99.5648 95.5,97.5 Z"/></g>
<g><path style="opacity:0.373" fill="#dde1fb" d="M 169.5,98.5 C 169.34,100.153 168.674,101.486 167.5,102.5C 167.229,100.62 167.896,99.287 169.5,98.5 Z"/></g>
<g><path style="opacity:1" fill="#f58624" d="M 61.5,102.5 C 73.2473,102.189 84.9139,102.522 96.5,103.5C 96.8333,104.5 97.5,105.167 98.5,105.5C 98.2865,107.144 98.6198,108.644 99.5,110C 86.8377,110.5 74.1711,110.667 61.5,110.5C 61.5,107.833 61.5,105.167 61.5,102.5 Z"/></g>
<g><path style="opacity:1" fill="#d0d5f9" d="M 138.5,101.5 C 140.833,103.167 142.833,105.167 144.5,107.5C 141.5,106.5 139.5,104.5 138.5,101.5 Z"/></g>
<g><path style="opacity:0.51" fill="#d6dbfa" d="M 172.5,98.5 C 176.061,102.603 178.894,107.27 181,112.5C 181.667,113.5 181.667,114.5 181,115.5C 177.509,116.926 173.842,117.593 170,117.5C 167.39,117.467 165.223,116.8 163.5,115.5C 169.29,115.904 174.956,115.404 180.5,114C 177.68,108.858 175.013,103.692 172.5,98.5 Z"/></g>
<g><path style="opacity:1" fill="#a6adf5" d="M 166.5,105.5 C 166.405,107.786 165.738,109.786 164.5,111.5C 164.054,108.99 164.72,106.99 166.5,105.5 Z"/></g>
<g><path style="opacity:0.235" fill="#dce0fa" d="M 229.5,106.5 C 229.573,108.027 228.906,109.027 227.5,109.5C 227.427,107.973 228.094,106.973 229.5,106.5 Z"/></g>
<g><path style="opacity:1" fill="#fcba6b" d="M 55.5,93.5 C 55.5,99.1667 55.5,104.833 55.5,110.5C 50.5,110.5 45.5,110.5 40.5,110.5C 40.5,104.833 40.5,99.1667 40.5,93.5C 45.5,92.1667 50.5,92.1667 55.5,93.5 Z"/></g>
<g><path style="opacity:0.594" fill="#fdecd5" d="M 40.5,93.5 C 40.5,99.1667 40.5,104.833 40.5,110.5C 45.5,110.5 50.5,110.5 55.5,110.5C 55.5,104.833 55.5,99.1667 55.5,93.5C 56.4896,99.31 56.8229,105.31 56.5,111.5C 50.8333,111.5 45.1667,111.5 39.5,111.5C 39.1771,105.31 39.5104,99.31 40.5,93.5 Z"/></g>
<g><path style="opacity:1" fill="#f6991f" d="M 41.5,94.5 C 45.8333,94.5 50.1667,94.5 54.5,94.5C 54.5,99.5 54.5,104.5 54.5,109.5C 50.1667,109.5 45.8333,109.5 41.5,109.5C 41.5,104.5 41.5,99.5 41.5,94.5 Z"/></g>
<g><path style="opacity:0.788" fill="#fbd3b2" d="M 98.5,105.5 C 100.074,107.102 100.741,109.102 100.5,111.5C 87.5,111.5 74.5,111.5 61.5,111.5C 61.5,111.167 61.5,110.833 61.5,110.5C 74.1711,110.667 86.8377,110.5 99.5,110C 98.6198,108.644 98.2865,107.144 98.5,105.5 Z"/></g>
<g><path style="opacity:0.11" fill="#e5e8fc" d="M 153.5,104.5 C 153.167,107.167 152.833,109.833 152.5,112.5C 149.197,111.849 146.53,110.182 144.5,107.5C 146.466,108.441 148.466,109.441 150.5,110.5C 151.518,108.406 152.518,106.406 153.5,104.5 Z"/></g>
<g><path style="opacity:0.192" fill="#dfe2fb" d="M 226.5,111.5 C 226.573,113.027 225.906,114.027 224.5,114.5C 224.427,112.973 225.094,111.973 226.5,111.5 Z"/></g>
<g><path style="opacity:0.043" fill="#e2e5fb" d="M 224.5,114.5 C 224.573,116.027 223.906,117.027 222.5,117.5C 222.427,115.973 223.094,114.973 224.5,114.5 Z"/></g>
<g><path style="opacity:0.085" fill="#feefde" d="M 105.5,118.5 C 90.5,118.5 75.5,118.5 60.5,118.5C 60.1778,124.358 60.5111,130.025 61.5,135.5C 61.5,135.833 61.5,136.167 61.5,136.5C 60.1818,133.742 59.5152,130.576 59.5,127C 59.5195,123.582 59.8528,120.249 60.5,117C 68,116.833 75.5,116.667 83,116.5C 90.8644,116.503 98.3644,117.169 105.5,118.5 Z"/></g>
<g><path style="opacity:1" fill="#f8aa54" d="M 105.5,118.5 C 105.5,119.167 105.5,119.833 105.5,120.5C 90.9116,119.517 76.245,119.184 61.5,119.5C 61.5,124.833 61.5,130.167 61.5,135.5C 60.5111,130.025 60.1778,124.358 60.5,118.5C 75.5,118.5 90.5,118.5 105.5,118.5 Z"/></g>
<g><path style="opacity:0.043" fill="#dfe3fb" d="M 117.5,117.5 C 121.5,120.833 125.167,124.5 128.5,128.5C 123.833,125.833 120.167,122.167 117.5,117.5 Z"/></g>
<g><path style="opacity:0.128" fill="#feebcf" d="M 34.5,118.5 C 30.5,118.5 26.5,118.5 22.5,118.5C 22.5,124.167 22.5,129.833 22.5,135.5C 26.5,135.5 30.5,135.5 34.5,135.5C 32.777,136.8 30.6103,137.467 28,137.5C 25.8333,137.333 23.6667,137.167 21.5,137C 20.19,130.556 20.19,124.056 21.5,117.5C 23.7754,116.893 26.1088,116.559 28.5,116.5C 30.9522,116.539 32.9522,117.206 34.5,118.5 Z"/></g>
<g><path style="opacity:1" fill="#f7a526" d="M 34.5,118.5 C 34.5,124.167 34.5,129.833 34.5,135.5C 30.5,135.5 26.5,135.5 22.5,135.5C 22.5,129.833 22.5,124.167 22.5,118.5C 26.5,118.5 30.5,118.5 34.5,118.5 Z"/></g>
<g><path style="opacity:0.596" fill="#fee6cc" d="M 105.5,118.5 C 106.906,118.973 107.573,119.973 107.5,121.5C 106.833,121.167 106.167,120.833 105.5,120.5C 105.5,119.833 105.5,119.167 105.5,118.5 Z"/></g>
<g><path style="opacity:0.043" fill="#e6e9fc" d="M 220.5,119.5 C 219.167,122.833 216.833,125.167 213.5,126.5C 215.5,123.833 217.833,121.5 220.5,119.5 Z"/></g>
<g><path style="opacity:1" fill="#f58e27" d="M 105.5,120.5 C 106.167,120.833 106.833,121.167 107.5,121.5C 108.757,124.427 110.757,126.761 113.5,128.5C 120.998,138.129 130.665,144.962 142.5,149C 140.5,149.667 138.5,149.667 136.5,149C 131.898,147.52 127.231,146.354 122.5,145.5C 117.564,142.358 112.564,139.191 107.5,136C 92.1703,135.5 76.837,135.333 61.5,135.5C 61.5,130.167 61.5,124.833 61.5,119.5C 76.245,119.184 90.9116,119.517 105.5,120.5 Z"/></g>
<g><path style="opacity:0.722" fill="#fee9d3" d="M 107.5,121.5 C 110.243,123.239 112.243,125.573 113.5,128.5C 110.757,126.761 108.757,124.427 107.5,121.5 Z"/></g>
<g><path style="opacity:0.596" fill="#d5dbfa" d="M 128.5,128.5 C 130.404,128.738 131.738,129.738 132.5,131.5C 130.596,131.262 129.262,130.262 128.5,128.5 Z"/></g>
<g><path style="opacity:0.106" fill="#dde1fb" d="M 211.5,128.5 C 208.642,132.01 204.976,134.343 200.5,135.5C 203.894,132.779 207.561,130.446 211.5,128.5 Z"/></g>
<g><path style="opacity:0.361" fill="#d4d9fa" d="M 132.5,131.5 C 140.349,135.431 148.349,138.765 156.5,141.5C 147.528,140.343 139.528,137.009 132.5,131.5 Z"/></g>
<g><path style="opacity:0.723" fill="#fcdec2" d="M 61.5,136.5 C 61.5,136.167 61.5,135.833 61.5,135.5C 76.837,135.333 92.1703,135.5 107.5,136C 112.564,139.191 117.564,142.358 122.5,145.5C 116.309,143.738 110.642,140.904 105.5,137C 90.8371,136.5 76.1705,136.333 61.5,136.5 Z"/></g>
<g><path style="opacity:0.235" fill="#feecd7" d="M 40.5,116.5 C 45.7616,116.195 50.9283,116.529 56,117.5C 56.4996,124.158 56.6663,130.825 56.5,137.5C 50.8333,137.5 45.1667,137.5 39.5,137.5C 39.2045,130.412 39.5379,123.412 40.5,116.5 Z"/></g>
<g><path style="opacity:1" fill="#f69a24" d="M 40.5,118.5 C 45.5,118.5 50.5,118.5 55.5,118.5C 55.5,124.167 55.5,129.833 55.5,135.5C 50.5,135.5 45.5,135.5 40.5,135.5C 40.5,129.833 40.5,124.167 40.5,118.5 Z"/></g>
<g><path style="opacity:0.149" fill="#d6dbfa" d="M 200.5,135.5 C 186.568,143.156 171.901,145.156 156.5,141.5C 163.159,142.222 169.825,142.389 176.5,142C 184.719,140.536 192.719,138.37 200.5,135.5 Z"/></g>
<g><path style="opacity:0.404" fill="#fee6d3" d="M 113.5,128.5 C 123.689,137.431 135.022,144.597 147.5,150C 146.944,150.383 146.611,150.883 146.5,151.5C 144.833,151.5 143.167,151.5 141.5,151.5C 134.933,150.274 128.6,148.274 122.5,145.5C 127.231,146.354 131.898,147.52 136.5,149C 138.5,149.667 140.5,149.667 142.5,149C 130.665,144.962 120.998,138.129 113.5,128.5 Z"/></g>
</svg>
